<?xml version="1.0" encoding="UTF-8"?>
<svg id="Layer_2" data-name="Layer 2" xmlns="http://www.w3.org/2000/svg" viewBox="0 0 793.75 209.67">
  <defs>
    <style>
      .cls-1 {
        font-family: ToxigenesisRg-Bold, Toxigenesis;
        font-size: 114.69px;
        font-weight: 700;
      }

      .cls-2 {
        letter-spacing: 0em;
      }

      .cls-2, .cls-3, .cls-4 {
        fill: #f3f1f2;
      }

      .cls-3 {
        letter-spacing: -.02em;
      }

      .cls-5 {
        letter-spacing: -.04em;
      }

      .cls-5, .cls-6 {
        fill: #d71b22;
      }
    </style>
  </defs>
  <g id="Layer_1-2" data-name="Layer 1">
    <g>
      <g>
        <path class="cls-4" d="M146.99,141.46l.49.83,10.67-14.73,27.62-38.09.51-.4-.65,2.27-7.86,27.64-12.84,45.46-9.08,31.92c-.19.66-1.49,1.12-2.15,1.12l-19.58-.06c-1.73,0-2.18-.96-2.83-2.19l-10.71-20.2-18.78-35.19-19.37-35.72-9.62-17.68-10.27,35.1-14.66,50.49-14.82,11.51-14.53,11.47L0,209.67l2.99-12.13,14.76-57.05,17.48-67.64,9.69-37.56c.54-2.08,1.41-2.67,3.44-2.67h33.66c2.08,0,4.01.84,5.22,2.64,2.5,3.72,4.61,7.59,6.87,11.62l43.27,77.28,9.61,17.31Z"/>
        <polygon class="cls-6" points="186.28 89.06 185.77 89.47 158.15 127.56 147.48 142.29 146.99 141.46 144 123.4 141.73 110.78 155.87 63 160.13 48.31 138.11 48.13 212.03 0 208.16 13.45 187.07 85.75 186.28 89.06"/>
      </g>
      <text class="cls-1" transform="translate(198.7 154.63) scale(.99) skewX(-9.83)"><tspan class="cls-4" x="0" y="0">N</tspan><tspan class="cls-3" x="104.59" y="0">e</tspan><tspan class="cls-2" x="175.81" y="0">xt</tspan><tspan class="cls-6" x="305.17" y="0">Pl</tspan><tspan class="cls-5" x="435.8" y="0">a</tspan><tspan class="cls-6" x="505.99" y="0">y</tspan></text>
    </g>
  </g>
</svg>