<?xml version="1.0" encoding="UTF-8"?>
<svg id="Layer_2" data-name="Layer 2" xmlns="http://www.w3.org/2000/svg" viewBox="0 0 212.03 209.67">
  <defs>
    <style>
      .cls-1 {
        fill: #f3f1f2;
      }

      .cls-2 {
        fill: #d71b22;
      }
    </style>
  </defs>
  <g id="Layer_1-2" data-name="Layer 1">
    <g>
      <path class="cls-1" d="M146.99,141.46l.49.83,10.67-14.73,27.62-38.09.51-.4-.65,2.27-7.86,27.64-12.84,45.46-9.08,31.92c-.19.66-1.49,1.12-2.15,1.12l-19.58-.06c-1.73,0-2.18-.96-2.83-2.19l-10.71-20.2-18.78-35.19-19.37-35.72-9.62-17.68-10.27,35.1-14.66,50.49-14.82,11.51-14.53,11.47L0,209.67l2.99-12.13,14.76-57.05,17.48-67.64,9.69-37.56c.54-2.08,1.41-2.67,3.44-2.67h33.66c2.08,0,4.01.84,5.22,2.64,2.5,3.72,4.61,7.59,6.87,11.62l43.27,77.28,9.61,17.31Z"/>
      <polygon class="cls-2" points="186.28 89.06 185.77 89.47 158.15 127.56 147.48 142.29 146.99 141.46 144 123.4 141.73 110.78 155.87 63 160.13 48.31 138.11 48.13 212.03 0 208.16 13.45 187.07 85.75 186.28 89.06"/>
    </g>
  </g>
</svg>